# xmcd
#
# Track frame offsets: 
#        150
#        15870
#        29627
#        43274
#        56799
#        72537
#        88935
#        104480
#        121511
#        169020
#        192826
#        216494
#        239901
#
# Disc length: 3659 seconds
#
# Revision: 1
# Processed by: cddbd v1.5.2PL0 Copyright (c) Steve Scherf et al.
# Submitted via: ExactAudioCopyFreeDBPlugin 1.0
#
DISCID=c20e490d
DTITLE=Thelonious Monk - Nutty
DYEAR=1900
DGENRE=Jazz
TTITLE0=Four in one
TTITLE1=Eronel
TTITLE2=Willow weep for me
TTITLE3=Skippy
TTITLE4=Sixteen (first take)
TTITLE5=Sixteen (second take)
TTITLE6=Carolina moon
TTITLE7=I'll follow you
TTITLE8=Friday the 13th
TTITLE9=Work
TTITLE10=Nutty
TTITLE11=The way you look tonight
TTITLE12=I want to be happy
EXTD=
EXTT0=
EXTT1=
EXTT2=
EXTT3=
EXTT4=
EXTT5=
EXTT6=
EXTT7=
EXTT8=
EXTT9=
EXTT10=
EXTT11=
EXTT12=
PLAYORDER=
